<svg width="26" height="27" viewBox="0 0 26 27" fill="none" xmlns="http://www.w3.org/2000/svg">
<g id="chart.line.uptrend.xyaxis" filter="url(#filter0_d_40_1193)">
<path id="chart.line.uptrend.xyaxis_2" d="M4.74332 18.2201C4.74332 18.6119 4.99946 18.868 5.3912 18.868H20.4808C20.8951 18.868 21.2266 18.5516 21.2266 18.1297C21.2266 17.7079 20.8951 17.3915 20.4808 17.3915H6.43082C6.27261 17.3915 6.21988 17.3387 6.21988 17.1805V13.9863L9.32367 10.7997C9.38394 10.7319 9.45928 10.7017 9.51954 10.7017C9.57981 10.7017 9.65515 10.7319 9.72295 10.7997L12.4124 13.5795C12.7514 13.9487 13.113 14.1069 13.4897 14.1069C13.8664 14.1069 14.2129 13.9411 14.5745 13.587L17.6708 10.4757L18.8535 11.666C19.1699 11.9824 19.6144 11.7941 19.7349 11.3421L20.865 6.90485C20.978 6.49051 20.6088 6.13644 20.1945 6.2419L15.7723 7.37193C15.3203 7.49246 15.1245 7.92187 15.4484 8.24581L16.6236 9.42857L13.6931 12.4043C13.6328 12.4721 13.5575 12.5098 13.4972 12.5098C13.4294 12.5098 13.3616 12.4721 13.2938 12.4043L10.6044 9.62444C10.2578 9.26283 9.89622 9.09709 9.51954 9.09709C9.14287 9.09709 8.8114 9.24776 8.44226 9.62444L6.21988 11.8769V5.33789C6.21988 4.92354 5.90347 4.59207 5.4816 4.59207C5.05972 4.59207 4.74332 4.92354 4.74332 5.33789V18.2201Z" fill="#58D46B"/>
</g>
<defs>
<filter id="filter0_d_40_1193" x="-3" y="0" width="32" height="32" filterUnits="userSpaceOnUse" color-interpolation-filters="sRGB">
<feFlood flood-opacity="0" result="BackgroundImageFix"/>
<feColorMatrix in="SourceAlpha" type="matrix" values="0 0 0 0 0 0 0 0 0 0 0 0 0 0 0 0 0 0 127 0" result="hardAlpha"/>
<feOffset dy="4"/>
<feGaussianBlur stdDeviation="2"/>
<feComposite in2="hardAlpha" operator="out"/>
<feColorMatrix type="matrix" values="0 0 0 0 0 0 0 0 0 0 0 0 0 0 0 0 0 0 0.25 0"/>
<feBlend mode="normal" in2="BackgroundImageFix" result="effect1_dropShadow_40_1193"/>
<feBlend mode="normal" in="SourceGraphic" in2="effect1_dropShadow_40_1193" result="shape"/>
</filter>
</defs>
</svg>
