<svg width="40" height="40" viewBox="0 0 40 40" fill="none" xmlns="http://www.w3.org/2000/svg">
<g id="Frame 1597881674">
<rect width="40" height="40" rx="12" fill="#EAECFF"/>
<path id="person.2" d="M24.4706 20.0342C26.5412 20.0342 28.2182 18.2118 28.2182 15.9701C28.2182 13.7626 26.5497 12 24.4706 12C22.4171 12 20.723 13.7882 20.723 15.9872C20.7316 18.2203 22.4086 20.0342 24.4706 20.0342ZM14.554 20.231C16.3594 20.231 17.8139 18.631 17.8139 16.6545C17.8139 14.7294 16.3594 13.1722 14.554 13.1722C12.7658 13.1722 11.2856 14.7551 11.2941 16.6631C11.2941 18.6396 12.7572 20.231 14.554 20.231ZM24.4706 18.5369C23.2898 18.5369 22.2888 17.4246 22.2888 15.9786C22.2888 14.584 23.2813 13.4973 24.4706 13.4973C25.6684 13.4973 26.6524 14.5668 26.6524 15.9701C26.6524 17.4075 25.6599 18.5369 24.4706 18.5369ZM14.554 18.7508C13.5872 18.7508 12.7658 17.8267 12.7658 16.6631C12.7658 15.5508 13.5786 14.6439 14.554 14.6439C15.5465 14.6439 16.3508 15.5337 16.3508 16.6545C16.3508 17.8267 15.5294 18.7508 14.554 18.7508ZM9.84813 28.0941H16.4963C16.0257 27.8203 15.7091 27.1957 15.769 26.631H9.77112C9.60856 26.631 9.54011 26.554 9.54011 26.4086C9.54011 24.4492 11.8332 22.584 14.5455 22.584C15.5037 22.584 16.462 22.8235 17.1979 23.2342C17.4888 22.815 17.8481 22.4556 18.3187 22.1476C17.2321 21.4802 15.8802 21.1209 14.5455 21.1209C10.9262 21.1209 8 23.7048 8 26.5455C8 27.5722 8.61604 28.0941 9.84813 28.0941ZM19.1401 28.0941H29.8011C31.2813 28.0941 32 27.6235 32 26.6139C32 24.261 29.0567 21.1294 24.4706 21.1294C19.8845 21.1294 16.9412 24.261 16.9412 26.6139C16.9412 27.6235 17.6599 28.0941 19.1401 28.0941ZM18.8663 26.5968C18.6695 26.5968 18.5925 26.5283 18.5925 26.3743C18.5925 25.0652 20.7059 22.6267 24.4706 22.6267C28.2353 22.6267 30.3487 25.0652 30.3487 26.3743C30.3487 26.5283 30.2717 26.5968 30.0663 26.5968H18.8663Z" fill="#5864D4"/>
</g>
</svg>
